<svg width="52" height="52" viewBox="0 0 52 52" fill="none" xmlns="http://www.w3.org/2000/svg">
<path fill-rule="evenodd" clip-rule="evenodd" d="M21.4045 4.07116C22.6234 2.8526 24.2764 2.16805 26 2.16805C27.7236 2.16805 29.3766 2.8526 30.5955 4.07116L47.9288 21.4045C49.1474 22.6234 49.8319 24.2764 49.8319 26C49.8319 27.7236 49.1474 29.3766 47.9288 30.5955L34.6493 43.8772C34.7265 42.6499 34.5415 41.4202 34.1068 40.2699C33.6721 39.1195 32.9975 38.0749 32.128 37.2053C31.2584 36.3358 30.2138 35.6613 29.0635 35.2265C27.9131 34.7918 26.6835 34.6069 25.4562 34.684C23.1627 34.8283 21.0203 35.8776 19.5003 37.6012C17.9803 39.3247 17.2071 41.5814 17.3507 43.875L4.06901 30.5955C2.85044 29.3766 2.16589 27.7236 2.16589 26C2.16589 24.2764 2.85044 22.6234 4.06901 21.4045L17.3507 8.12283C17.2734 9.35044 17.4583 10.5804 17.8932 11.731C18.328 12.8816 19.0028 13.9265 19.8727 14.7962L24.466 19.3895L17.8598 26L26 34.1402L34.1402 26L21.4067 13.2622C20.1881 12.0432 19.5036 10.3902 19.5036 8.66667C19.5036 6.9431 20.1881 5.29009 21.4067 4.07116H21.4045ZM32.5 43.3333C32.5 45.0578 31.815 46.7117 30.5956 47.9311C29.3762 49.1505 27.7223 49.8355 25.9978 49.8355C24.2734 49.8355 22.6195 49.1505 21.4001 47.9311C20.1807 46.7117 19.4957 45.0578 19.4957 43.3333C19.4957 41.6089 20.1807 39.955 21.4001 38.7356C22.6195 37.5162 24.2734 36.8312 25.9978 36.8312C27.7223 36.8312 29.3762 37.5162 30.5956 38.7356C31.815 39.955 32.5 41.6089 32.5 43.3333Z" fill="#6A2CD8"/>
</svg>
