<svg width="197" height="52" viewBox="0 0 197 52" fill="none" xmlns="http://www.w3.org/2000/svg">
<path fill-rule="evenodd" clip-rule="evenodd" d="M21.4045 4.07116C22.6234 2.8526 24.2764 2.16805 26 2.16805C27.7236 2.16805 29.3766 2.8526 30.5955 4.07116L47.9288 21.4045C49.1474 22.6234 49.8319 24.2764 49.8319 26C49.8319 27.7236 49.1474 29.3766 47.9288 30.5955L34.6493 43.8772C34.7265 42.6499 34.5415 41.4202 34.1068 40.2699C33.6721 39.1195 32.9975 38.0749 32.128 37.2053C31.2584 36.3358 30.2138 35.6613 29.0635 35.2265C27.9131 34.7918 26.6835 34.6069 25.4562 34.684C23.1627 34.8283 21.0203 35.8776 19.5003 37.6012C17.9803 39.3247 17.2071 41.5814 17.3507 43.875L4.06901 30.5955C2.85044 29.3766 2.16589 27.7236 2.16589 26C2.16589 24.2764 2.85044 22.6234 4.06901 21.4045L17.3507 8.12283C17.2734 9.35044 17.4583 10.5804 17.8932 11.731C18.328 12.8816 19.0028 13.9265 19.8727 14.7962L24.466 19.3895L17.8598 26L26 34.1402L34.1402 26L21.4067 13.2622C20.1881 12.0432 19.5036 10.3902 19.5036 8.66667C19.5036 6.9431 20.1881 5.29009 21.4067 4.07116H21.4045ZM32.5 43.3333C32.5 45.0578 31.815 46.7117 30.5956 47.9311C29.3762 49.1505 27.7223 49.8355 25.9978 49.8355C24.2734 49.8355 22.6195 49.1505 21.4001 47.9311C20.1807 46.7117 19.4957 45.0578 19.4957 43.3333C19.4957 41.6089 20.1807 39.955 21.4001 38.7356C22.6195 37.5162 24.2734 36.8312 25.9978 36.8312C27.7223 36.8312 29.3762 37.5162 30.5956 38.7356C31.815 39.955 32.5 41.6089 32.5 43.3333Z" fill="#6A2CD8"/>
<path d="M67.9446 39H62.8821L72.0994 12.8182H77.9545L87.1847 39H82.1222L75.1293 18.1875H74.9247L67.9446 39ZM68.1108 28.7344H81.9176V32.544H68.1108V28.7344ZM105.632 24.554L101.413 25.0142C101.294 24.5881 101.085 24.1875 100.787 23.8125C100.497 23.4375 100.105 23.1349 99.6108 22.9048C99.1165 22.6747 98.5114 22.5597 97.7955 22.5597C96.8324 22.5597 96.0227 22.7685 95.3665 23.1861C94.7188 23.6037 94.3991 24.1449 94.4077 24.8097C94.3991 25.3807 94.608 25.8452 95.0341 26.2031C95.4688 26.5611 96.1847 26.8551 97.1818 27.0852L100.531 27.8011C102.389 28.2017 103.77 28.8366 104.673 29.706C105.585 30.5753 106.045 31.7131 106.054 33.1193C106.045 34.3551 105.683 35.446 104.967 36.392C104.26 37.3295 103.276 38.0625 102.014 38.5909C100.753 39.1193 99.304 39.3835 97.6676 39.3835C95.2642 39.3835 93.3295 38.8807 91.8636 37.875C90.3977 36.8608 89.5241 35.4503 89.2429 33.6435L93.7557 33.2088C93.9602 34.0952 94.3949 34.7642 95.0597 35.2159C95.7244 35.6676 96.5895 35.8935 97.6548 35.8935C98.7543 35.8935 99.6364 35.6676 100.301 35.2159C100.974 34.7642 101.311 34.206 101.311 33.5412C101.311 32.9787 101.094 32.5142 100.659 32.1477C100.233 31.7812 99.5682 31.5 98.6648 31.304L95.3153 30.6009C93.4318 30.2088 92.0384 29.5483 91.1349 28.6193C90.2315 27.6818 89.7841 26.4972 89.7926 25.0653C89.7841 23.8551 90.1122 22.8068 90.777 21.9205C91.4503 21.0256 92.3835 20.3352 93.5767 19.8494C94.7784 19.3551 96.1634 19.108 97.7315 19.108C100.033 19.108 101.844 19.598 103.165 20.5781C104.494 21.5582 105.317 22.8835 105.632 24.554ZM125.39 24.554L121.171 25.0142C121.052 24.5881 120.843 24.1875 120.545 23.8125C120.255 23.4375 119.863 23.1349 119.369 22.9048C118.874 22.6747 118.269 22.5597 117.553 22.5597C116.59 22.5597 115.781 22.7685 115.124 23.1861C114.477 23.6037 114.157 24.1449 114.165 24.8097C114.157 25.3807 114.366 25.8452 114.792 26.2031C115.227 26.5611 115.942 26.8551 116.94 27.0852L120.289 27.8011C122.147 28.2017 123.528 28.8366 124.431 29.706C125.343 30.5753 125.803 31.7131 125.812 33.1193C125.803 34.3551 125.441 35.446 124.725 36.392C124.018 37.3295 123.033 38.0625 121.772 38.5909C120.511 39.1193 119.062 39.3835 117.425 39.3835C115.022 39.3835 113.087 38.8807 111.621 37.875C110.156 36.8608 109.282 35.4503 109.001 33.6435L113.513 33.2088C113.718 34.0952 114.153 34.7642 114.817 35.2159C115.482 35.6676 116.347 35.8935 117.413 35.8935C118.512 35.8935 119.394 35.6676 120.059 35.2159C120.732 34.7642 121.069 34.206 121.069 33.5412C121.069 32.9787 120.852 32.5142 120.417 32.1477C119.991 31.7812 119.326 31.5 118.423 31.304L115.073 30.6009C113.19 30.2088 111.796 29.5483 110.893 28.6193C109.989 27.6818 109.542 26.4972 109.55 25.0653C109.542 23.8551 109.87 22.8068 110.535 21.9205C111.208 21.0256 112.141 20.3352 113.335 19.8494C114.536 19.3551 115.921 19.108 117.489 19.108C119.79 19.108 121.602 19.598 122.923 20.5781C124.252 21.5582 125.075 22.8835 125.39 24.554ZM138.321 39.3835C136.352 39.3835 134.652 38.9744 133.22 38.1562C131.797 37.3295 130.702 36.1619 129.935 34.6534C129.168 33.1364 128.784 31.3509 128.784 29.2969C128.784 27.277 129.168 25.5043 129.935 23.9787C130.71 22.4446 131.793 21.2514 133.182 20.3991C134.571 19.5384 136.203 19.108 138.078 19.108C139.288 19.108 140.43 19.304 141.504 19.696C142.587 20.0795 143.541 20.6761 144.368 21.4858C145.203 22.2955 145.859 23.3267 146.337 24.5795C146.814 25.8239 147.053 27.3068 147.053 29.0284V30.4474H130.957V27.3281H142.616C142.608 26.4418 142.416 25.6534 142.041 24.9631C141.666 24.2642 141.142 23.7145 140.469 23.3139C139.804 22.9134 139.028 22.7131 138.142 22.7131C137.196 22.7131 136.365 22.9432 135.649 23.4034C134.933 23.8551 134.375 24.4517 133.974 25.1932C133.582 25.9261 133.382 26.7315 133.374 27.6094V30.3324C133.374 31.4744 133.582 32.4545 134 33.2727C134.418 34.0824 135.001 34.7045 135.751 35.1392C136.501 35.5653 137.379 35.7784 138.385 35.7784C139.058 35.7784 139.668 35.6847 140.213 35.4972C140.759 35.3011 141.232 35.0156 141.632 34.6406C142.033 34.2656 142.335 33.8011 142.54 33.2472L146.861 33.733C146.588 34.875 146.068 35.8722 145.301 36.7244C144.543 37.5682 143.571 38.2244 142.386 38.6932C141.202 39.1534 139.847 39.3835 138.321 39.3835ZM160.773 19.3636V22.9432H149.485V19.3636H160.773ZM152.272 14.6591H156.9V33.0938C156.9 33.7159 156.993 34.1932 157.181 34.5256C157.377 34.8494 157.632 35.071 157.948 35.1903C158.263 35.3097 158.613 35.3693 158.996 35.3693C159.286 35.3693 159.55 35.348 159.789 35.3054C160.036 35.2628 160.223 35.2244 160.351 35.1903L161.131 38.8082C160.884 38.8935 160.53 38.9872 160.07 39.0895C159.618 39.1918 159.064 39.2514 158.408 39.2685C157.249 39.3026 156.205 39.1278 155.276 38.7443C154.347 38.3523 153.61 37.7472 153.064 36.929C152.527 36.1108 152.263 35.0881 152.272 33.8608V14.6591ZM164.643 39V19.3636H169.131V22.6364H169.335C169.693 21.5028 170.307 20.6293 171.176 20.0156C172.054 19.3935 173.055 19.0824 174.18 19.0824C174.436 19.0824 174.722 19.0952 175.037 19.1207C175.361 19.1378 175.629 19.1676 175.842 19.2102V23.4673C175.646 23.3991 175.335 23.3395 174.909 23.2884C174.491 23.2287 174.087 23.1989 173.695 23.1989C172.851 23.1989 172.092 23.3821 171.419 23.7486C170.754 24.1065 170.23 24.6051 169.847 25.2443C169.463 25.8835 169.271 26.6207 169.271 27.456V39H164.643ZM184.216 39.3963C182.972 39.3963 181.851 39.1747 180.854 38.7315C179.865 38.2798 179.081 37.6151 178.501 36.7372C177.93 35.8594 177.645 34.777 177.645 33.4901C177.645 32.3821 177.849 31.4659 178.259 30.7415C178.668 30.017 179.226 29.4375 179.933 29.0028C180.641 28.5682 181.438 28.2401 182.324 28.0185C183.219 27.7884 184.143 27.6222 185.098 27.5199C186.249 27.4006 187.182 27.294 187.898 27.2003C188.614 27.098 189.134 26.9446 189.457 26.7401C189.79 26.527 189.956 26.1989 189.956 25.7557V25.679C189.956 24.7159 189.67 23.9702 189.099 23.4418C188.528 22.9134 187.706 22.6491 186.632 22.6491C185.499 22.6491 184.599 22.8963 183.935 23.3906C183.278 23.8849 182.835 24.4687 182.605 25.142L178.284 24.5284C178.625 23.3352 179.188 22.3381 179.972 21.5369C180.756 20.7273 181.714 20.1222 182.848 19.7216C183.982 19.3125 185.234 19.108 186.607 19.108C187.553 19.108 188.494 19.2188 189.432 19.4403C190.369 19.6619 191.226 20.0284 192.001 20.5398C192.777 21.0426 193.399 21.7287 193.868 22.598C194.345 23.4673 194.584 24.554 194.584 25.858V39H190.135V36.3026H189.982C189.7 36.848 189.304 37.3594 188.793 37.8366C188.29 38.3054 187.655 38.6847 186.888 38.9744C186.129 39.2557 185.239 39.3963 184.216 39.3963ZM185.418 35.9957C186.347 35.9957 187.152 35.8125 187.834 35.446C188.516 35.071 189.04 34.5767 189.406 33.9631C189.781 33.3494 189.969 32.6804 189.969 31.956V29.642C189.824 29.7614 189.577 29.8722 189.227 29.9744C188.886 30.0767 188.503 30.1662 188.077 30.2429C187.651 30.3196 187.229 30.3878 186.811 30.4474C186.393 30.5071 186.031 30.5582 185.724 30.6009C185.034 30.6946 184.416 30.848 183.871 31.0611C183.325 31.2741 182.895 31.5724 182.58 31.956C182.264 32.331 182.107 32.8168 182.107 33.4134C182.107 34.2656 182.418 34.9091 183.04 35.3438C183.662 35.7784 184.455 35.9957 185.418 35.9957Z" fill="#242628"/>
</svg>
